<svg xmlns="http://www.w3.org/2000/svg" viewBox="0 0 200 48" fill="none" role="img" aria-label="SODA OS">
  <defs>
    <linearGradient id="wm-mark" x1="4" y1="2" x2="42" y2="46" gradientUnits="userSpaceOnUse">
      <stop stop-color="#6B21A8"/>
      <stop offset="1" stop-color="#7C3AED"/>
    </linearGradient>
    <linearGradient id="wm-pink" x1="28" y1="8" x2="40" y2="28" gradientUnits="userSpaceOnUse">
      <stop stop-color="#F472B6"/>
      <stop offset="1" stop-color="#EC4899"/>
    </linearGradient>
  </defs>
  <rect x="0" y="2" width="44" height="44" rx="12" fill="url(#wm-mark)"/>
  <circle cx="34" cy="14" r="7" fill="url(#wm-pink)" opacity="0.9"/>
  <path
    d="M27.2 15.2c-1.4-2.2-4.1-3.4-7.2-3-3.6.45-6 2.7-6.3 5.5-.2 2.3 1.15 4.1 4 5.2l4.7 1.8c1.8.7 2.6 1.5 2.55 2.7-.15 1.7-1.8 2.85-4.25 3.1-2.55.3-4.9-.65-6.05-2.7l-2.7 1.7c1.8 3.1 5.25 4.65 9 4.2 4.5-.5 7.45-3.35 7.7-6.95.2-2.7-1.4-4.75-4.6-6l-4.6-1.8c-1.55-.6-2.25-1.3-2.2-2.3.1-1.4 1.55-2.45 3.6-2.7 1.95-.25 3.6.5 4.5 2.05l3.1-2.05z"
    fill="#fff"
  />
  <text x="56" y="32" fill="#F5F0FF" font-family="system-ui,Segoe UI,sans-serif" font-size="22" font-weight="700" letter-spacing="0.08em">SODA</text>
  <text x="132" y="32" fill="#EC4899" font-family="system-ui,Segoe UI,sans-serif" font-size="22" font-weight="600" letter-spacing="0.12em">OS</text>
</svg>
