<svg xmlns="http://www.w3.org/2000/svg" viewBox="0 0 64 64" fill="none">
  <defs>
    <linearGradient id="i-bg" x1="8" y1="4" x2="56" y2="60" gradientUnits="userSpaceOnUse">
      <stop stop-color="#6B21A8"/>
      <stop offset="0.55" stop-color="#7C3AED"/>
      <stop offset="1" stop-color="#5B21B6"/>
    </linearGradient>
    <linearGradient id="i-pink" x1="36" y1="12" x2="52" y2="40" gradientUnits="userSpaceOnUse">
      <stop stop-color="#F472B6"/>
      <stop offset="1" stop-color="#EC4899"/>
    </linearGradient>
  </defs>
  <rect width="64" height="64" rx="16" fill="url(#i-bg)"/>
  <circle cx="46" cy="18" r="10" fill="url(#i-pink)" opacity="0.85"/>
  <path
    d="M38.5 20.5c-2.2-3.4-6.4-5.2-11.2-4.6-5.6.7-9.4 4.2-9.8 8.6-.3 3.6 1.8 6.4 6.2 8.1l7.4 2.8c2.8 1.1 4.1 2.4 4 4.2-.2 2.6-2.8 4.4-6.6 4.8-4 .5-7.6-1-9.4-4.2l-4.2 2.6c2.8 4.8 8.2 7.2 14 6.5 7-.8 11.6-5.2 12-10.8.3-4.2-2.2-7.4-7.2-9.4l-7.2-2.8c-2.4-.9-3.5-2-3.4-3.6.2-2.2 2.4-3.8 5.6-4.2 3-.4 5.6.8 7 3.2l4.8-3.2z"
    fill="#FFFFFF"
  />
</svg>
